<svg xmlns="http://www.w3.org/2000/svg" viewBox="0 0 512 512"><path d="M452 152v255c0 24.899-20.099 45-45 45H45c-24.901 0-45-20.101-45-45V152l30-32h392l30 32z" fill="#e1e4fb"/><path d="M452 152v255c0 24.899-20.099 45-45 45H226V120h196l30 32z" fill="#c5c9f7"/><path d="M452 75v77H0V75c0-24.901 20.099-45 45-45h362c24.901 0 45 20.099 45 45z" fill="#ff507e"/><path d="M452 75v77H226V30h181c24.901 0 45 20.099 45 45z" fill="#f40f78"/><g fill="#7a7780"><path d="M75 90c-8.291 0-15-6.709-15-15V15c0-8.291 6.709-15 15-15s15 6.709 15 15v60c0 8.291-6.709 15-15 15zM165 90c-8.291 0-15-6.709-15-15V15c0-8.291 6.709-15 15-15s15 6.709 15 15v60c0 8.291-6.709 15-15 15z"/></g><g fill="#57555c"><path d="M287 90c-8.291 0-15-6.709-15-15V15c0-8.291 6.709-15 15-15s15 6.709 15 15v60c0 8.291-6.709 15-15 15zM377 90c-8.291 0-15-6.709-15-15V15c0-8.291 6.709-15 15-15s15 6.709 15 15v60c0 8.291-6.709 15-15 15z"/></g><g fill="#adacb2"><path d="M105 212H75c-8.291 0-15-6.709-15-15s6.709-15 15-15h30c8.291 0 15 6.709 15 15s-6.709 15-15 15zM196 212h-31c-8.291 0-15-6.709-15-15s6.709-15 15-15h31c8.291 0 15 6.709 15 15s-6.709 15-15 15z"/></g><g fill="#8a8891"><path d="M287 212h-31c-8.291 0-15-6.709-15-15s6.709-15 15-15h31c8.291 0 15 6.709 15 15s-6.709 15-15 15zM377 212h-30c-8.291 0-15-6.709-15-15s6.709-15 15-15h30c8.291 0 15 6.709 15 15s-6.709 15-15 15z"/></g><g fill="#adacb2"><path d="M105 272H75c-8.291 0-15-6.709-15-15s6.709-15 15-15h30c8.291 0 15 6.709 15 15s-6.709 15-15 15zM196 272h-31c-8.291 0-15-6.709-15-15s6.709-15 15-15h31c8.291 0 15 6.709 15 15s-6.709 15-15 15z"/></g><g fill="#8a8891"><path d="M287 272h-31c-8.291 0-15-6.709-15-15s6.709-15 15-15h31c8.291 0 15 6.709 15 15s-6.709 15-15 15zM377 272h-30c-8.291 0-15-6.709-15-15s6.709-15 15-15h30c8.291 0 15 6.709 15 15s-6.709 15-15 15z"/></g><g fill="#adacb2"><path d="M105 332H75c-8.291 0-15-6.709-15-15s6.709-15 15-15h30c8.291 0 15 6.709 15 15s-6.709 15-15 15zM196 332h-31c-8.291 0-15-6.709-15-15s6.709-15 15-15h31c8.291 0 15 6.709 15 15s-6.709 15-15 15z"/></g><path d="M287 332h-31c-8.291 0-15-6.709-15-15s6.709-15 15-15h31c8.291 0 15 6.709 15 15s-6.709 15-15 15z" fill="#8a8891"/><g fill="#adacb2"><path d="M105 392H75c-8.291 0-15-6.709-15-15s6.709-15 15-15h30c8.291 0 15 6.709 15 15s-6.709 15-15 15zM196 392h-31c-8.291 0-15-6.709-15-15s6.709-15 15-15h31c8.291 0 15 6.709 15 15s-6.709 15-15 15z"/></g><path d="M287 392h-31c-8.291 0-15-6.709-15-15s6.709-15 15-15h31c8.291 0 15 6.709 15 15s-6.709 15-15 15z" fill="#8a8891"/><path d="M407 302c-57.9 0-105 47.1-105 105s47.1 105 105 105 105-47.1 105-105-47.1-105-105-105z" fill="#fea832"/><path d="M512 407c0 57.9-47.1 105-105 105V302c57.9 0 105 47.1 105 105z" fill="#fe9923"/><path d="M452 407c0 8.399-6.599 15-15 15h-30c-8.401 0-15-6.601-15-15v-60c0-8.401 6.599-15 15-15s15 6.599 15 15v45h15c8.401 0 15 6.599 15 15z" fill="#7a7780"/><path d="M452 407c0 8.399-6.599 15-15 15h-30v-90c8.401 0 15 6.599 15 15v45h15c8.401 0 15 6.599 15 15z" fill="#57555c"/></svg>